# xmcd CD database file
#
# Track frame offsets:
#	150
#	22224
#	42416
#	63895
#
# Disc length: 1146 seconds
#
# Revision: 0
# Processed by: cddbd v1.5.1PL0 Copyright (c) Steve Scherf et al.
# Submitted via: CDex 1.51
#
DISCID=31047804
DTITLE=FREENOTE - Re:チャンネル
DYEAR=2004
DGENRE=Pop
TTITLE0=Re:チャンネル
TTITLE1=遥かへのスピードランナー
TTITLE2=エアロブレイン
TTITLE3=Re:チャンネル（弾き語り）
EXTD=YEAR: 2004
EXTT0=
EXTT1=
EXTT2=
EXTT3=
PLAYORDER=
